<svg width="43" height="42" viewBox="0 0 43 42" fill="none" xmlns="http://www.w3.org/2000/svg">
<mask id="mask0_101_15" style="mask-type:luminance" maskUnits="userSpaceOnUse" x="34" y="9" width="9" height="11">
<path d="M42.8262 9.20764H34.8625V19.6211H42.8262V9.20764Z" fill="white"/>
</mask>
<g mask="url(#mask0_101_15)">
<path d="M41.061 19.3742C41.1431 19.3742 41.1841 19.3742 41.2252 19.333C41.4715 19.2507 41.6767 19.0449 41.7177 18.7979L42.9492 10.319C42.9903 9.94852 42.744 9.61924 42.3745 9.57808C42.0051 9.53692 41.6767 9.78388 41.6357 10.1543L40.6094 17.1104L36.094 11.6361C35.8477 11.348 35.4372 11.3068 35.1498 11.5538C34.8625 11.8007 34.8214 12.2123 35.0677 12.5004L40.5684 19.1684C40.6505 19.2918 40.8557 19.3742 41.061 19.3742Z" fill="#FD7350"/>
</g>
<mask id="mask1_101_15" style="mask-type:luminance" maskUnits="userSpaceOnUse" x="0" y="22" width="9" height="11">
<path d="M8.59083 22.3789H0.298828V32.2573H8.59083V22.3789Z" fill="white"/>
</mask>
<g mask="url(#mask1_101_15)">
<path d="M0.996701 32.2161C1.3251 32.2161 1.61244 31.9692 1.65349 31.6399L2.72078 24.6839L7.19518 30.1993C7.44147 30.4874 7.85197 30.5286 8.13932 30.2816C8.42666 30.0347 8.46771 29.6231 8.22142 29.3349L2.84393 22.667C2.67973 22.4612 2.39239 22.3789 2.14609 22.4612C1.89979 22.5436 1.69454 22.7494 1.65349 22.9963L0.339909 31.4341C0.29886 31.8045 0.545157 32.1338 0.914602 32.2161C0.955652 32.2161 0.955652 32.2161 0.996701 32.2161Z" fill="#FD7350"/>
</g>
<mask id="mask2_101_15" style="mask-type:luminance" maskUnits="userSpaceOnUse" x="1" y="22" width="42" height="20">
<path d="M42.0051 22.9139H1.48926V41.1066H42.0051V22.9139Z" fill="white"/>
</mask>
<g mask="url(#mask2_101_15)">
<path d="M21.6857 41.1478C31.5786 41.1478 40.1169 33.739 41.5536 23.9018C41.5947 23.5313 41.3484 23.202 40.9789 23.1609C40.6095 23.0786 40.2811 23.3667 40.24 23.7371C38.9265 32.9158 30.9218 39.8307 21.6857 39.8307C12.5316 39.8307 4.56801 32.9981 3.17233 23.9018C3.13128 23.5313 2.76183 23.2844 2.39239 23.3255C2.02294 23.3667 1.77664 23.7371 1.81769 24.1076C3.33652 33.7801 11.8748 41.1478 21.6857 41.1478Z" fill="#FD7350"/>
</g>
<mask id="mask3_101_15" style="mask-type:luminance" maskUnits="userSpaceOnUse" x="1" y="0" width="42" height="20">
<path d="M42.0051 0.811035H1.48926V19.6623H42.0051V0.811035Z" fill="white"/>
</mask>
<g mask="url(#mask3_101_15)">
<path d="M2.3924 19.5388C2.7208 19.5388 3.00815 19.2919 3.0492 18.9214C4.07543 9.37231 12.0801 2.12815 21.6857 2.12815C30.9218 2.12815 38.8854 9.04303 40.2401 18.2217C40.2811 18.5921 40.6505 18.8391 40.9789 18.7979C41.3484 18.7568 41.5947 18.3863 41.5536 18.0571C40.1169 8.21983 31.5786 0.811035 21.6857 0.811035C11.4233 0.811035 2.84395 8.54911 1.73561 18.7979C1.69456 19.1684 1.98191 19.4977 2.3103 19.5388C2.35135 19.5388 2.3924 19.5388 2.3924 19.5388Z" fill="#FD7350"/>
</g>
<mask id="mask4_101_15" style="mask-type:luminance" maskUnits="userSpaceOnUse" x="7" y="7" width="29" height="32">
<path d="M35.3961 7.8905H7.48242V38.3489H35.3961V7.8905Z" fill="white"/>
</mask>
<g mask="url(#mask4_101_15)">
<path d="M33.3847 24.0252C31.5785 31.0224 27.6377 35.5088 21.6034 37.2787C15.5692 35.4677 11.6284 31.0224 9.82223 24.0252C8.71389 19.6622 8.79599 15.5874 8.87809 14.2703C14.5019 14.1056 19.1815 10.7717 21.5624 9.04297C23.9433 10.7717 28.6229 14.1056 34.2467 14.2703C34.4109 15.6286 34.493 19.6622 33.3847 24.0252ZM35.2729 13.7352C35.2319 13.4882 35.0266 13.2825 34.7803 13.2825C29.1566 13.2825 24.559 9.94849 22.055 8.13745L21.8908 8.05513C21.7266 7.93165 21.4803 7.93165 21.3161 8.05513L21.1929 8.13745C18.8942 9.82501 14.0914 13.2825 8.42655 13.2825C8.18025 13.2825 7.93395 13.4882 7.93395 13.7352C7.93395 13.941 7.44136 18.7979 8.83704 24.2722C10.7253 31.5986 15.0766 36.4555 21.4803 38.3077C21.5213 38.3077 21.5624 38.3077 21.6034 38.3077C21.6445 38.3077 21.6855 38.3077 21.7266 38.3077C28.1303 36.4555 32.4816 31.5986 34.3698 24.2722C35.7655 18.7979 35.314 13.941 35.2729 13.7352Z" fill="#7743DC"/>
</g>
<path d="M27.1862 19.1683L20.7003 27.6061C20.5361 27.8119 20.2898 27.9766 20.0025 28.0177C19.9614 28.0177 19.9204 28.0177 19.8794 28.0177C19.6331 28.0177 19.4278 27.9354 19.2226 27.7708L15.9386 25.0954C15.4871 24.7249 15.446 24.1075 15.7744 23.6548C16.1438 23.202 16.8006 23.1608 17.2111 23.5313L19.6741 25.5481L25.5442 17.9335C25.8726 17.4808 26.5294 17.3984 26.9809 17.7277C27.4735 18.0982 27.5556 18.7156 27.1862 19.1683ZM21.6034 11.0598C19.4278 12.6239 15.405 15.3405 10.6432 15.6286C10.5201 19.0037 10.7253 32.0514 21.6034 35.3854C32.4816 32.0102 32.6868 18.9625 32.5636 15.6286C27.8019 15.2993 23.7791 12.6239 21.6034 11.0598Z" fill="#7743DC"/>
</svg>
